<svg xmlns="http://www.w3.org/2000/svg" viewBox="0 0 48 48"><path fill="#fdbd40" d="M24.37,3.86l6.32,12.82a.4.4,0,0,0,.31.22L45.13,19a.41.41,0,0,1,.23.7l-10.23,10A.4.4,0,0,0,35,30l2.42,14.08a.41.41,0,0,1-.59.43L24.19,37.84a.42.42,0,0,0-.38,0L11.16,44.49a.41.41,0,0,1-.59-.43L13,30a.4.4,0,0,0-.12-.36l-10.23-10a.41.41,0,0,1,.23-.7L17,16.9a.4.4,0,0,0,.31-.22L23.63,3.86A.42.42,0,0,1,24.37,3.86Z" data-name="star"/><path d="M36.92,44.86a1,1,0,0,1-.47-.12L24,38.19,11.55,44.74a1,1,0,0,1-1.45-1.05l2.37-13.87L2.4,20a1,1,0,0,1-.25-1A1,1,0,0,1,3,18.3l13.92-2L23.1,3.66a1,1,0,0,1,1.8,0l6.22,12.61L45,18.3a1,1,0,0,1,.81.68,1,1,0,0,1-.25,1L35.53,29.82,37.9,43.69a1,1,0,0,1-.39,1A1,1,0,0,1,36.92,44.86ZM24,36.06a1,1,0,0,1,.47.12L35.59,42,33.46,29.64a1,1,0,0,1,.29-.89l9-8.77-12.44-1.8a1,1,0,0,1-.75-.55L24,6.36,18.44,17.63a1,1,0,0,1-.75.55L5.25,20l9,8.77a1,1,0,0,1,.29.89L12.41,42l11.12-5.85A1,1,0,0,1,24,36.06Z"/></svg>